# xmcd CD database file
#
# Track frame offsets:
#	150
#	23208
#	40860
#	66875
#	92135
#	114253
#	141623
#	161473
#	184710
#	210070
#	236298
#	256275
#	271423
#
# Disc length: 3758 seconds
#
# Revision: 2
# Processed by: cddbd v1.5.2PL0 Copyright (c) Steve Scherf et al.
# Submitted via: CDex 1.70beta3
#
DISCID=aa0eac0d
DTITLE=Akiyoshi Toshiko and Lew Tabackin - Vintage
DYEAR=2008
DGENRE=Jazz
TTITLE0=Take the 'A' Train
TTITLE1=Sophisticated Lady
TTITLE2=Gypsy Without a Song
TTITLE3=Mood Indigo
TTITLE4=Serenade to Sweden
TTITLE5=All Too Soon
TTITLE6=It Don't Mean a Thing
TTITLE7=I Got It Bad (and That Ain't Good)
TTITLE8=Drop Me Off in Harlem
TTITLE9=Eulogy
TTITLE10=What Am I Here For
TTITLE11=Cotton Tail
TTITLE12=In a Sentimental Mood
EXTD=YEAR: 2008
EXTT0=
EXTT1=
EXTT2=
EXTT3=
EXTT4=
EXTT5=
EXTT6=
EXTT7=
EXTT8=
EXTT9=
EXTT10=
EXTT11=
EXTT12=
PLAYORDER=
